<?xml version="1.0" encoding="utf-8"?>
<!-- Generator: Adobe Illustrator 23.1.1, SVG Export Plug-In . SVG Version: 6.00 Build 0)  -->
<svg version="1.1" xmlns="http://www.w3.org/2000/svg" xmlns:xlink="http://www.w3.org/1999/xlink" x="0px" y="0px"
	 viewBox="0 0 287.4 291.1" style="enable-background:new 0 0 287.4 291.1;" xml:space="preserve">
<style type="text/css">
	.st0{fill:#131313;stroke:url(#SVGID_1_);stroke-miterlimit:10;}
	.st1{fill:#1A1C14;}
	.st2{fill:url(#SVGID_4_);}
	.st3{fill:#131313;}
	.st4{fill:#FFFFFF;}
	.st5{fill:#6B759E;}
	.st6{fill:#4A566E;}
	.st7{fill:#00FFFF;}
</style>
<g id="Layer_1">
	<g>
		<g>
			<linearGradient id="SVGID_1_" gradientUnits="userSpaceOnUse" x1="18.8701" y1="145.5728" x2="268.5085" y2="145.5728">
				<stop  offset="5.618000e-03" style="stop-color:#FBC926"/>
				<stop  offset="0.2528" style="stop-color:#FFFBCC"/>
				<stop  offset="0.3045" style="stop-color:#F8F0BB"/>
				<stop  offset="0.4072" style="stop-color:#E7D28E"/>
				<stop  offset="0.55" style="stop-color:#CCA246"/>
				<stop  offset="0.5955" style="stop-color:#C3922E"/>
				<stop  offset="0.8708" style="stop-color:#EED688"/>
				<stop  offset="1" style="stop-color:#FFFBCC"/>
			</linearGradient>
			<path class="st0" d="M268,145.6c0,68.7-55.7,124.3-124.3,124.3c-68.7,0-124.3-55.7-124.3-124.3C19.4,76.9,75,21.3,143.7,21.3
				C212.3,21.3,268,76.9,268,145.6z"/>
			<g>
				<g>
					<g>
						<defs>
							<path id="SVGID_2_" d="M143.7,145.6L143.7,145.6c1.4,0,2.8-0.1,4.2-0.1c1.4,0,2.7-0.1,4.1-0.1c1.3,0,2.7-0.1,4-0.1
								c1.3,0,2.6,0,3.9-0.1c1.3,0,2.5,0,3.8-0.1c1.2,0,2.5,0,3.7-0.1c1.2,0,2.4,0,3.6-0.1s2.4,0,3.5-0.1c1.2,0,2.3,0,3.5-0.1
								c1.1,0,2.3,0,3.4-0.1c1.1,0,2.2,0,3.4-0.1c1.1,0,2.2,0,3.3-0.1c1.1,0,2.2,0,3.3-0.1c1.1,0,2.2,0,3.3-0.1c1.1,0,2.2,0,3.2-0.1
								c1.1,0,2.1,0,3.2-0.1c1.1,0,2.1,0,3.2-0.1c1.1,0,2.1,0,3.2-0.1c1.1,0,2.1,0,3.2-0.1c1.1,0,2.2,0,3.2-0.1c1.1,0,2.2,0,3.3-0.1
								c1.1,0,2.2,0,3.3-0.1c1.1,0,2.2,0,3.3-0.1c1.1,0,2.2,0,3.4-0.1c1.1,0,2.3,0,3.4-0.1c1.1,0,2.3,0,3.5-0.1c1.2,0,2.3,0,3.5-0.1
								c1.2,0,2.4,0,3.6-0.1c1.2,0,2.5,0,3.7-0.1c1.2,0,2.5,0,3.8-0.1c1.3,0,2.6,0,3.9-0.1c1.3,0,2.6,0,4-0.1c1.3,0,2.7-0.1,4.1-0.1
								c1.4,0,2.8-0.1,4.2-0.1c-0.1-3.1-0.2-6.3-0.5-9.3c-0.3-3.1-0.7-6.1-1.2-9c-0.5-3-1.1-5.9-1.8-8.7c-0.7-2.8-1.5-5.6-2.4-8.4
								c-0.9-2.7-1.9-5.4-2.9-8c-1.1-2.6-2.2-5.2-3.5-7.7c-1.2-2.5-2.5-4.9-3.9-7.3c-1.4-2.4-2.8-4.7-4.4-7
								c-1.5-2.3-3.1-4.4-4.8-6.6c-1.6-2.1-3.4-4.2-5.1-6.2c-1.8-2-3.6-3.9-5.5-5.8c-1.9-1.9-3.8-3.6-5.8-5.4c-2-1.7-4-3.4-6.1-4.9
								c-2.1-1.6-4.2-3.1-6.3-4.5c-2.1-1.4-4.3-2.8-6.6-4.1c-2.2-1.3-4.5-2.5-6.8-3.6c-2.3-1.1-4.6-2.2-7-3.2
								c-2.4-1-4.7-1.9-7.1-2.7c-2.4-0.8-4.8-1.6-7.3-2.3c-2.5-0.7-4.9-1.3-7.4-1.8c-2.5-0.5-5-1-7.5-1.3c-2.5-0.4-5.1-0.6-7.6-0.8
								c-2.6-0.2-5.1-0.3-7.7-0.4c-2.6,0-5.2,0-7.7,0.1c-2.6,0.1-5.1,0.3-7.6,0.6c-2.5,0.3-5,0.6-7.4,1c-2.4,0.4-4.8,0.9-7.2,1.5
								c-2.4,0.6-4.7,1.2-7,1.9c-2.3,0.7-4.6,1.4-6.8,2.3c-2.2,0.8-4.4,1.7-6.6,2.6c-2.2,0.9-4.3,1.9-6.3,3
								c-2.1,1.1-4.1,2.2-6.1,3.3s-3.9,2.4-5.9,3.6c-1.9,1.3-3.8,2.6-5.6,3.9c-1.8,1.4-3.6,2.8-5.3,4.2C64.3,54,62.7,55.5,61,57
								c-1.6,1.5-3.2,3.1-4.8,4.7c-1.6,1.6-3.1,3.3-4.5,5c-1.5,1.7-2.9,3.4-4.2,5.2c-1.4,1.8-2.7,3.6-3.9,5.4
								c-1.3,1.8-2.5,3.7-3.6,5.6c-1.2,1.9-2.3,3.8-3.3,5.8c-1,2-2,4-3,6c-0.9,2-1.8,4.1-2.6,6.2c-0.8,2.1-1.6,4.2-2.3,6.3
								c-0.7,2.1-1.4,4.3-2,6.5s-1.1,4.4-1.6,6.6c-0.5,2.2-0.9,4.5-1.2,6.7c-0.3,2.3-0.6,4.5-0.9,6.8c-0.2,2.3-0.4,4.6-0.5,6.9
								c-0.1,2.3-0.1,4.7-0.1,7c0,2.4,0.2,4.7,0.3,7s0.4,4.6,0.7,6.9c0.3,2.3,0.7,4.6,1.1,6.8c0.4,2.2,0.9,4.5,1.5,6.7
								c0.6,2.2,1.2,4.4,1.8,6.5c0.7,2.2,1.4,4.3,2.2,6.4c0.8,2.1,1.6,4.2,2.5,6.2c0.9,2,1.9,4.1,2.9,6.1c1,2,2.1,3.9,3.2,5.9
								c1.1,1.9,2.3,3.8,3.5,5.7c1.2,1.9,2.5,3.7,3.8,5.5c1.3,1.8,2.7,3.5,4.1,5.3c1.4,1.7,2.9,3.4,4.4,5c1.5,1.6,3.1,3.2,4.7,4.8
								c1.6,1.6,3.3,3.1,5,4.6c1.7,1.5,3.4,2.9,5.2,4.3c1.8,1.4,3.6,2.7,5.5,4c1.9,1.3,3.8,2.5,5.8,3.7c2,1.2,4,2.3,6,3.4
								c2,1.1,4.1,2.1,6.2,3.1c2.1,1,4.3,1.9,6.5,2.7c2.2,0.9,4.4,1.7,6.7,2.4c2.3,0.7,4.6,1.4,6.9,2c2.3,0.6,4.7,1.1,7.1,1.6
								c2.4,0.5,4.8,0.9,7.3,1.2c2.5,0.3,4.9,0.6,7.4,0.8c2.5,0.2,5.1,0.3,7.6,0.3c2.6,0,5.2,0,7.7-0.2c2.6-0.1,5.1-0.4,7.7-0.7
								c2.5-0.3,5.1-0.7,7.6-1.1c2.5-0.5,5-1,7.5-1.6c2.5-0.6,4.9-1.3,7.3-2.1c2.4-0.8,4.8-1.6,7.2-2.5c2.4-0.9,4.7-1.9,7-3
								c2.3-1.1,4.6-2.2,6.8-3.4c2.2-1.2,4.5-2.5,6.6-3.9c2.2-1.4,4.3-2.8,6.4-4.3c2.1-1.5,4.1-3.1,6.2-4.7c2-1.6,4-3.4,5.9-5.2
								c1.9-1.8,3.8-3.6,5.6-5.6s3.6-3.9,5.3-6c1.7-2.1,3.3-4.2,4.9-6.4c1.6-2.2,3.1-4.4,4.5-6.7c1.4-2.3,2.8-4.7,4.1-7.1
								s2.5-4.9,3.6-7.5c1.1-2.5,2.2-5.2,3.2-7.8c1-2.7,1.9-5.4,2.6-8.1c0.8-2.8,1.5-5.6,2.1-8.5c0.6-2.9,1.1-5.8,1.5-8.8
								c0.4-3,0.7-6,0.9-9.1c0.2-3.1,0.2-6.2,0.2-9.3c-1.4,0-2.8,0.1-4.2,0.1c-1.4,0-2.7,0.1-4.1,0.1c-1.3,0-2.7,0.1-4,0.1
								c-1.3,0-2.6,0-3.9,0.1c-1.3,0-2.5,0-3.8,0.1c-1.2,0-2.5,0-3.7,0.1c-1.2,0-2.4,0-3.6,0.1c-1.2,0-2.4,0-3.5,0.1
								c-1.2,0-2.3,0-3.5,0.1c-1.1,0-2.3,0-3.4,0.1c-1.1,0-2.2,0-3.4,0.1c-1.1,0-2.2,0-3.3,0.1c-1.1,0-2.2,0-3.3,0.1
								c-1.1,0-2.2,0-3.3,0.1c-1.1,0-2.2,0-3.2,0.1c-1.1,0-2.1,0-3.2,0.1c-1.1,0-2.1,0-3.2,0.1c-1.1,0-2.1,0-3.2,0.1
								c-1.1,0-2.1,0-3.2,0.1c-1.1,0-2.2,0-3.2,0.1c-1.1,0-2.2,0-3.3,0.1c-1.1,0-2.2,0-3.3,0.1c-1.1,0-2.2,0-3.3,0.1
								c-1.1,0-2.2,0-3.4,0.1c-1.1,0-2.3,0-3.4,0.1c-1.1,0-2.3,0-3.5,0.1c-1.2,0-2.3,0-3.5,0.1c-1.2,0-2.4,0-3.6,0.1
								c-1.2,0-2.5,0-3.7,0.1c-1.2,0-2.5,0-3.8,0.1c-1.3,0-2.6,0-3.9,0.1c-1.3,0-2.6,0-4,0.1c-1.3,0-2.7,0.1-4.1,0.1
								C146.5,145.5,145.1,145.5,143.7,145.6z"/>
						</defs>
						<clipPath id="SVGID_3_">
							<use xlink:href="#SVGID_2_"  style="overflow:visible;"/>
						</clipPath>
						<g style="clip-path:url(#SVGID_3_);">
							
								<image style="overflow:visible;" width="1011" height="1011" xlink:href="55B703D3B6DD60C.png"  transform="matrix(0.24 0 0 0.24 22.2928 24.24)">
							</image>
						</g>
					</g>
				</g>
			</g>
			<path class="st1" d="M143.7,198.6c-29.2,0-53-23.8-53-53c0-29.2,23.8-53,53-53c29.2,0,53,23.8,53,53
				C196.7,174.8,172.9,198.6,143.7,198.6z"/>
			<linearGradient id="SVGID_4_" gradientUnits="userSpaceOnUse" x1="110.6059" y1="167.9633" x2="190.5104" y2="113.885">
				<stop  offset="0" style="stop-color:#FAFF6A"/>
				<stop  offset="0.435" style="stop-color:#FFB830"/>
				<stop  offset="0.6727" style="stop-color:#FAFF6A"/>
				<stop  offset="1" style="stop-color:#FFB900"/>
			</linearGradient>
			<path class="st2" d="M191.9,145.6c0,26.6-21.6,48.2-48.2,48.2c-26.6,0-48.2-21.6-48.2-48.2c0-26.6,21.6-48.2,48.2-48.2
				C170.3,97.3,191.9,118.9,191.9,145.6z"/>
			<path class="st3" d="M142.7,152.3c-3.7,0-6.7-3-6.7-6.7c0-3.7,3-6.7,6.7-6.7c3.7,0,6.7,3,6.7,6.7
				C149.5,149.3,146.4,152.3,142.7,152.3z"/>
			<path class="st4" d="M143.7,151.4c-3.2,0-5.8-2.6-5.8-5.8c0-3.2,2.6-5.8,5.8-5.8c3.2,0,5.8,2.6,5.8,5.8
				C149.5,148.8,146.9,151.4,143.7,151.4z"/>
			<g>
				<g>
					<path class="st5" d="M143.7,217.6c-39.7,0-72-32.3-72-72c0-39.7,32.3-72,72-72c39.7,0,72,32.3,72,72
						C215.7,185.3,183.4,217.6,143.7,217.6z M143.7,74.1c-39.4,0-71.5,32-71.5,71.4c0,39.4,32.1,71.4,71.5,71.4
						c39.4,0,71.5-32,71.5-71.4C215.2,106.2,183.1,74.1,143.7,74.1z"/>
				</g>
				<g>
					<path class="st5" d="M143.7,215.6c-38.6,0-70-31.4-70-70c0-38.6,31.4-70,70-70c38.6,0,70,31.4,70,70
						C213.7,184.2,182.3,215.6,143.7,215.6z M143.7,76.1c-38.3,0-69.5,31.2-69.5,69.4s31.2,69.4,69.5,69.4
						c38.3,0,69.5-31.2,69.5-69.4S182,76.1,143.7,76.1z"/>
				</g>
				<g>
					<path class="st5" d="M143.7,213.6c-37.5,0-68-30.5-68-68c0-37.5,30.5-68,68-68c37.5,0,68,30.5,68,68
						C211.7,183.1,181.2,213.6,143.7,213.6z M143.7,78.1c-37.2,0-67.5,30.3-67.5,67.4c0,37.2,30.3,67.4,67.5,67.4
						c37.2,0,67.5-30.3,67.5-67.4C211.2,108.4,180.9,78.1,143.7,78.1z"/>
				</g>
				<g>
					<path class="st5" d="M143.7,211.6c-36.4,0-66-29.6-66-66s29.6-66,66-66c36.4,0,66,29.6,66,66S180.1,211.6,143.7,211.6z
						 M143.7,80.1c-36.1,0-65.5,29.4-65.5,65.4c0,36.1,29.4,65.4,65.5,65.4c36.1,0,65.5-29.4,65.5-65.4
						C209.2,109.5,179.8,80.1,143.7,80.1z"/>
				</g>
				<g>
					<path class="st5" d="M143.7,209.6c-35.3,0-64-28.7-64-64c0-35.3,28.7-64,64-64c35.3,0,64,28.7,64,64
						C207.7,180.9,179,209.6,143.7,209.6z M143.7,82.1c-35,0-63.5,28.5-63.5,63.5c0,35,28.5,63.5,63.5,63.5
						c35,0,63.5-28.5,63.5-63.5C207.2,110.6,178.7,82.1,143.7,82.1z"/>
				</g>
				<g>
					<path class="st5" d="M143.7,207.6c-34.2,0-62-27.8-62-62c0-34.2,27.8-62,62-62c34.2,0,62,27.8,62,62
						C205.7,179.8,177.9,207.6,143.7,207.6z M143.7,84.1c-33.9,0-61.5,27.6-61.5,61.5c0,33.9,27.6,61.5,61.5,61.5
						c33.9,0,61.5-27.6,61.5-61.5C205.2,111.7,177.6,84.1,143.7,84.1z"/>
				</g>
				<g>
					<path class="st5" d="M143.7,205.6c-33.1,0-60-26.9-60-60c0-33.1,26.9-60,60-60c33.1,0,60,26.9,60,60
						C203.7,178.7,176.8,205.6,143.7,205.6z M143.7,86.1c-32.8,0-59.5,26.7-59.5,59.5s26.7,59.5,59.5,59.5
						c32.8,0,59.5-26.7,59.5-59.5S176.5,86.1,143.7,86.1z"/>
				</g>
				<g>
					<path class="st5" d="M143.7,203.6c-32,0-58.1-26-58.1-58c0-32,26-58,58.1-58c32,0,58,26,58,58
						C201.7,177.6,175.7,203.6,143.7,203.6z M143.7,88.1c-31.7,0-57.5,25.8-57.5,57.5c0,31.7,25.8,57.5,57.5,57.5
						c31.7,0,57.5-25.8,57.5-57.5C201.2,113.9,175.4,88.1,143.7,88.1z"/>
				</g>
				<g>
					<path class="st5" d="M143.7,201.6c-30.9,0-56.1-25.1-56.1-56c0-30.9,25.1-56,56.1-56c30.9,0,56.1,25.1,56.1,56
						C199.7,176.5,174.6,201.6,143.7,201.6z M143.7,90.1c-30.6,0-55.5,24.9-55.5,55.5c0,30.6,24.9,55.5,55.5,55.5
						c30.6,0,55.5-24.9,55.5-55.5C199.2,115,174.3,90.1,143.7,90.1z"/>
				</g>
			</g>
			<g>
				<g>
					<path class="st6" d="M143.7,265.7c-66.3,0-120.3-53.9-120.3-120.1c0-66.2,54-120.1,120.3-120.1C210,25.5,264,79.4,264,145.6
						C264,211.8,210,265.7,143.7,265.7z M143.7,26c-66,0-119.7,53.6-119.7,119.5s53.7,119.5,119.7,119.5
						c66,0,119.7-53.6,119.7-119.5S209.7,26,143.7,26z"/>
				</g>
				<g>
					<path class="st6" d="M143.7,263c-64.9,0-117.6-52.7-117.6-117.4c0-64.7,52.8-117.4,117.6-117.4c64.9,0,117.6,52.7,117.6,117.4
						C261.3,210.3,208.5,263,143.7,263z M143.7,28.7c-64.6,0-117.1,52.4-117.1,116.9c0,64.4,52.5,116.9,117.1,116.9
						c64.6,0,117.1-52.4,117.1-116.9C260.8,81.1,208.2,28.7,143.7,28.7z"/>
				</g>
				<g>
					<path class="st6" d="M143.7,260.3c-63.4,0-115-51.5-115-114.8c0-63.3,51.6-114.8,115-114.8c63.4,0,115,51.5,115,114.8
						C258.6,208.9,207.1,260.3,143.7,260.3z M143.7,31.4c-63.1,0-114.4,51.2-114.4,114.2c0,63,51.3,114.2,114.4,114.2
						c63.1,0,114.4-51.2,114.4-114.2C258.1,82.6,206.8,31.4,143.7,31.4z"/>
				</g>
				<g>
					<path class="st6" d="M143.7,257.7c-61.9,0-112.3-50.3-112.3-112.1S81.8,33.5,143.7,33.5c61.9,0,112.3,50.3,112.3,112.1
						S205.6,257.7,143.7,257.7z M143.7,34C82.1,34,32,84.1,32,145.6c0,61.5,50.1,111.5,111.7,111.5c61.6,0,111.7-50,111.7-111.5
						C255.4,84.1,205.3,34,143.7,34z"/>
				</g>
				<g>
					<path class="st6" d="M143.7,255c-60.4,0-109.6-49.1-109.6-109.4c0-60.3,49.2-109.4,109.6-109.4s109.6,49.1,109.6,109.4
						C253.3,205.9,204.1,255,143.7,255z M143.7,36.7c-60.1,0-109.1,48.8-109.1,108.9s48.9,108.9,109.1,108.9
						c60.1,0,109.1-48.8,109.1-108.9S203.8,36.7,143.7,36.7z"/>
				</g>
				<g>
					<path class="st6" d="M143.7,252.3c-59,0-106.9-47.9-106.9-106.8s48-106.8,106.9-106.8c59,0,106.9,47.9,106.9,106.8
						S202.7,252.3,143.7,252.3z M143.7,39.4C85,39.4,37.3,87,37.3,145.6c0,58.6,47.7,106.2,106.4,106.2
						c58.7,0,106.4-47.6,106.4-106.2C250.1,87,202.3,39.4,143.7,39.4z"/>
				</g>
				<g>
					<path class="st6" d="M143.7,249.7c-57.5,0-104.3-46.7-104.3-104.1c0-57.4,46.8-104.1,104.3-104.1
						c57.5,0,104.3,46.7,104.3,104.1C247.9,203,201.2,249.7,143.7,249.7z M143.7,42C86.5,42,40,88.5,40,145.6
						s46.5,103.5,103.7,103.5c57.2,0,103.7-46.4,103.7-103.5S200.9,42,143.7,42z"/>
				</g>
				<g>
					<path class="st6" d="M143.7,247c-56,0-101.6-45.5-101.6-101.4c0-55.9,45.6-101.4,101.6-101.4c56,0,101.6,45.5,101.6,101.4
						C245.3,201.5,199.7,247,143.7,247z M143.7,44.7c-55.7,0-101,45.3-101,100.9c0,55.6,45.3,100.9,101,100.9
						c55.7,0,101-45.3,101-100.9C244.7,90,199.4,44.7,143.7,44.7z"/>
				</g>
				<g>
					<path class="st6" d="M143.7,244.3c-54.5,0-98.9-44.3-98.9-98.8s44.4-98.8,98.9-98.8c54.5,0,98.9,44.3,98.9,98.8
						S198.2,244.3,143.7,244.3z M143.7,47.4c-54.2,0-98.4,44.1-98.4,98.2c0,54.2,44.1,98.2,98.4,98.2c54.2,0,98.4-44.1,98.4-98.2
						C242.1,91.4,197.9,47.4,143.7,47.4z"/>
				</g>
				<g>
					<path class="st6" d="M143.7,241.7c-53.1,0-96.2-43.1-96.2-96.1c0-53,43.2-96.1,96.2-96.1c53.1,0,96.2,43.1,96.2,96.1
						C239.9,198.6,196.8,241.7,143.7,241.7z M143.7,50C90.9,50,48,92.9,48,145.6c0,52.7,42.9,95.5,95.7,95.5
						c52.8,0,95.7-42.9,95.7-95.5C239.4,92.9,196.5,50,143.7,50z"/>
				</g>
				<g>
					<path class="st6" d="M143.7,239c-51.6,0-93.6-41.9-93.6-93.4s42-93.4,93.6-93.4c51.6,0,93.6,41.9,93.6,93.4
						S195.3,239,143.7,239z M143.7,52.7c-51.3,0-93,41.7-93,92.9c0,51.2,41.7,92.9,93,92.9c51.3,0,93-41.7,93-92.9
						C236.7,94.4,195,52.7,143.7,52.7z"/>
				</g>
			</g>
		</g>
	</g>
</g>
<g id="Layer_3">
	<g>
		<path class="st7" d="M106.2,87.2l-7-4.6l-9.4,7.8l3.2,7.7l-5.9,4.9L74.7,69.6l6.7-5.6L112,82.3L106.2,87.2z M94.1,79.1
			c-6.4-4.1-10-6.5-10.8-7c-0.8-0.5-1.5-1-1.9-1.3c0.9,1.8,2.9,6.5,6,13.9L94.1,79.1z"/>
		<path class="st7" d="M141.8,75.8l-13,2.7c-3.9,0.8-7.2,0.6-9.8-0.6c-2.6-1.2-4.2-3.4-4.8-6.5c-0.4-2.2-0.3-4,0.5-5.5
			c0.7-1.5,2.1-2.7,4.3-3.7l0-0.2c-1.7,0.1-3.1-0.4-4.3-1.5c-1.2-1.1-2-2.6-2.4-4.6c-0.6-3,0.1-5.3,2.1-7.2c2-1.8,5.4-3.2,10.4-4.3
			l10.8-2.3L141.8,75.8z M129.1,49.6l-3.9,0.8c-2.1,0.4-3.6,1-4.5,1.8c-0.9,0.8-1.2,1.8-0.9,3.1c0.3,1.4,0.9,2.3,1.9,2.7
			c1,0.4,2.5,0.4,4.5,0l4.3-0.9L129.1,49.6z M127.1,63.6c-4.1,0.9-5.9,2.7-5.4,5.5c0.3,1.5,1,2.6,2.1,3.1c1.1,0.5,2.7,0.6,4.7,0.2
			l4.8-1l-1.7-8.8L127.1,63.6z"/>
		<path class="st7" d="M155.8,43.2l10.2,2.4c4.6,1.1,7.8,2.5,9.6,4.3c1.8,1.8,2.3,4.2,1.7,7c-0.5,2-1.3,3.4-2.5,4.5
			c-1.2,1-2.6,1.5-4.2,1.4l-0.1,0.2c2,0.9,3.3,2.2,3.9,3.6s0.7,3.3,0.2,5.4c-0.7,3-2.3,5-4.9,6.2c-2.5,1.2-5.7,1.3-9.4,0.4
			l-12.2-2.9L155.8,43.2z M158.4,63.3l-2,8.5l4.5,1.1c1.9,0.4,3.4,0.4,4.5-0.1c1.1-0.5,1.8-1.5,2.2-3c0.6-2.7-1-4.5-4.9-5.4
			L158.4,63.3z M159.7,57.8l4,0.9c1.9,0.4,3.3,0.5,4.3,0.1c1-0.4,1.6-1.2,1.9-2.6c0.3-1.3,0-2.3-0.7-3c-0.8-0.8-2.2-1.4-4.2-1.8
			l-3.6-0.9L159.7,57.8z"/>
		<path class="st7" d="M194.4,98.2l3.2-7.7l-9.4-7.8l-7,4.6l-5.9-4.9L206,64l6.7,5.6l-12.4,33.5L194.4,98.2z M200.1,84.8
			c2.9-7,4.6-11,4.9-11.9c0.4-0.9,0.7-1.6,1-2.1c-1.6,1.2-5.9,4-12.6,8.4L200.1,84.8z"/>
	</g>
</g>
</svg>
